<?xml version="1.0" encoding="UTF-8"?>
<svg version="1.1" xmlns="http://www.w3.org/2000/svg" width="129" height="82">
<path d="M0 0 C5.713125 -0.0825 11.42625 -0.165 17.3125 -0.25 C19.09180908 -0.28641602 20.87111816 -0.32283203 22.7043457 -0.36035156 C34.32135839 -0.49960383 44.4722531 0.51990748 53.27734375 8.9453125 C57.92294712 14.48632695 60.60564349 20.77013065 61 28 C61.05027344 28.66257812 61.10054687 29.32515625 61.15234375 30.0078125 C61.65295222 41.18139352 58.28587493 50.42672496 50.8125 58.625 C43.87138324 65.38660512 35.5544091 67.16491646 26.171875 67.09765625 C25.17534912 67.09614563 25.17534912 67.09614563 24.15869141 67.09460449 C21.68910992 67.08939262 19.21955313 67.07543139 16.75 67.0625 C11.2225 67.041875 5.695 67.02125 0 67 C0 44.89 0 22.78 0 0 Z M16 13 C16 26.53 16 40.06 16 54 C28.36286608 54.86116195 28.36286608 54.86116195 37.828125 49.38671875 C42.85823572 43.37546006 44.43847864 38.30636083 44.25 30.4609375 C43.60970491 24.15803268 40.76211066 19.98688334 36 16 C29.03103721 11.95650161 29.03103721 11.95650161 16 13 Z " fill="#78A122" transform="translate(5,8)"/>
<path d="M0 0 C8.353125 -0.1546875 8.353125 -0.1546875 16.875 -0.3125 C19.47930908 -0.38078003 19.47930908 -0.38078003 22.13623047 -0.45043945 C30.56022019 -0.5800695 38.08277587 -0.52919836 45 5 C48.4789878 9.13575571 49.13573587 12.6520068 49 18 C47.33170824 23.88808855 44.7686271 26.5030068 40 30 C40.721875 30.556875 41.44375 31.11375 42.1875 31.6875 C49.59183673 37.7755102 49.59183673 37.7755102 51 42 C51.50748917 48.21674229 51.7719833 53.76789413 48 59 C43.00501247 64.23464603 38.49997338 66.79592632 31.10595703 67.22705078 C29.65653699 67.22655728 28.2070883 67.21576566 26.7578125 67.1953125 C26.07581787 67.19329834 25.39382324 67.19128418 24.69116211 67.18920898 C22.16903862 67.17882757 19.64701181 67.15090558 17.125 67.125 C8.648125 67.063125 8.648125 67.063125 0 67 C0 44.89 0 22.78 0 0 Z M16 12 C16 16.95 16 21.9 16 27 C21.60726423 27.29003091 25.1241995 27.13444318 30 24 C32.1610211 20.75846834 32.64247553 19.76307099 32 16 C30.24947464 13.44351804 30.24947464 13.44351804 27 12 C23.26393323 11.66942106 19.76472706 11.81856737 16 12 Z M16 39 C16 44.28 16 49.56 16 55 C19.0628125 55.12375 19.0628125 55.12375 22.1875 55.25 C23.91033203 55.31960937 23.91033203 55.31960937 25.66796875 55.390625 C29.64699561 54.92415057 31.19812845 53.80187155 34 51 C35.16210219 48.60648505 35.16210219 48.60648505 35 46 C33.37844371 42.51365399 32.23546708 41.15697806 29 39 C25.79620876 38.75753217 25.79620876 38.75753217 22.3125 38.875 C20.229375 38.91625 18.14625 38.9575 16 39 Z " fill="#78A123" transform="translate(76,8)"/>
</svg>
