<?xml version="1.0" encoding="UTF-8"?>
<svg version="1.1" xmlns="http://www.w3.org/2000/svg" width="257" height="206">
<path d="M0 0 C11.92553424 7.40440896 18.85780599 21.0679778 22.25 34.3125 C22.85538871 37.17243976 22.99711702 39.66596846 22.984375 42.609375 C22.78455645 50.08253964 22.78455645 50.08253964 26.07421875 56.4609375 C27.81396712 57.77680099 29.59699918 59.03732707 31.41796875 60.23828125 C36.80612681 63.91461905 40.76526179 69.57936129 42 76 C42.89574012 85.75516975 41.23110217 92.19950535 35.8125 100.25 C29.8137377 106.11545647 23.46139916 108.92874231 15.08691406 109.0625 C13.56312668 109.04353187 12.03936301 109.02258852 10.515625 109 C8.84114573 108.99884133 7.16666312 109.00022424 5.4921875 109.00390625 C2.87332932 109.0083151 0.25804784 109.00015807 -2.36035156 108.94873047 C-12.76016487 108.50285249 -12.76016487 108.50285249 -22.20898438 112.0703125 C-24.41252634 114.27212891 -26.27184864 116.41365102 -28 119 C-26.7934375 119.03738281 -25.586875 119.07476562 -24.34375 119.11328125 C-22.72913822 119.17899219 -21.11455622 119.24543771 -19.5 119.3125 C-18.70851562 119.33505859 -17.91703125 119.35761719 -17.1015625 119.38085938 C-11.23397196 119.6453819 -5.11506618 120.33264375 -0.47119141 124.30908203 C2.96819136 128.15016274 4.9565008 131.98224273 5.03125 137.16796875 C4.67847255 142.43317224 3.5186504 145.91075765 0 150 C-4.59608358 153.47051209 -8.02591385 155.11051625 -13.75585938 155.17700195 C-14.72116577 155.18983719 -15.68647217 155.20267242 -16.68103027 155.21589661 C-17.72472778 155.22328354 -18.76842529 155.23067047 -19.84375 155.23828125 C-20.92321899 155.246353 -22.00268799 155.25442474 -23.11486816 155.26274109 C-25.40468745 155.27658231 -27.69452738 155.28730429 -29.984375 155.29516602 C-33.45874221 155.31229658 -36.93213729 155.35617375 -40.40625 155.40039062 C-42.6354097 155.41052517 -44.86457746 155.41903888 -47.09375 155.42578125 C-48.12125366 155.44328934 -49.14875732 155.46079742 -50.20739746 155.47883606 C-59.50448615 155.45137658 -68.37534154 153.45048373 -75.1875 146.75 C-75.92355469 146.04359375 -76.65960938 145.3371875 -77.41796875 144.609375 C-77.94003906 144.07828125 -78.46210937 143.5471875 -79 143 C-82.65194504 144.32930637 -85.6234702 145.95767376 -88.80078125 148.1875 C-89.69603516 148.80367187 -90.59128906 149.41984375 -91.51367188 150.0546875 C-93.37166382 151.34607618 -95.2258795 152.64291589 -97.07617188 153.9453125 C-103.45261241 158.31511691 -109.06176084 161.82924153 -117.0625 160.5 C-122.14916484 158.9549381 -126.35145472 155.63546704 -129.16796875 151.1328125 C-130.16572315 148.57518855 -130.3708579 146.49408645 -130.4375 143.75 C-130.49744141 142.41195312 -130.49744141 142.41195312 -130.55859375 141.046875 C-129.38064019 134.62167375 -125.88030646 130.35265357 -120.64453125 126.59375 C-119.04479797 125.54560371 -117.43381009 124.514451 -115.8125 123.5 C-114.99330078 122.96375 -114.17410156 122.4275 -113.33007812 121.875 C-107.32481665 118 -107.32481665 118 -105 118 C-108.38335196 113.95648181 -111.86354812 110.10026511 -115.62890625 106.41015625 C-116.28366943 105.76763916 -116.93843262 105.12512207 -117.61303711 104.46313477 C-118.92874613 103.17935655 -120.25094668 101.90218927 -121.58032227 100.63256836 C-125.78803354 96.52453764 -129.36927054 92.30148172 -132 87 C-132 86.34 -132 85.68 -132 85 C-132.60585937 85.10699219 -133.21171875 85.21398437 -133.8359375 85.32421875 C-141.43617854 86.41163785 -147.72757599 85.7918081 -154.265625 81.51953125 C-160.07848986 76.81541654 -163.46556106 71.31368092 -165 64 C-165.58091325 55.43152959 -163.91212657 48.93400951 -158.4375 42.1875 C-152.93610027 36.43466519 -146.85876758 33.90527416 -138.9375 33.5 C-134.33606551 33.65916912 -131.03059353 35.21956419 -126.953125 37.22265625 C-124.94280626 38.2191792 -124.94280626 38.2191792 -122.4375 37.5625 C-121.06662406 36.68373337 -119.70459834 35.78930387 -118.37890625 34.84375 C-107.98120613 27.75342642 -95.524221 26.68077653 -83.375 28.8125 C-72.374818 31.4928821 -62.15133706 37.10864172 -52 42 C-52.27714844 40.90300781 -52.55429688 39.80601563 -52.83984375 38.67578125 C-53.20579237 37.22137007 -53.57167427 35.7669421 -53.9375 34.3125 C-54.21110352 33.2306543 -54.21110352 33.2306543 -54.49023438 32.12695312 C-58.56337658 15.90844144 -58.56337658 15.90844144 -55.875 9.1875 C-52.47515993 5.22101992 -49.58477339 3.24591311 -44.375 2.4375 C-34.59073398 2.99873897 -26.10767121 8.70502763 -19 15 C-18.39671875 15.47566406 -17.7934375 15.95132813 -17.171875 16.44140625 C-10.20462009 22.45144821 -5.8655051 32.4034847 -3 41 C-0.89415562 41.80563638 -0.89415562 41.80563638 1.5625 42.1875 C2.80193359 42.42533203 2.80193359 42.42533203 4.06640625 42.66796875 C4.70449219 42.77753906 5.34257812 42.88710937 6 43 C1.7939688 28.81191319 -3.47369978 16.8830395 -15 7 C-15.99 6.505 -15.99 6.505 -17 6 C-16.05321786 3.63304466 -15.44057518 2.27315661 -13.2421875 0.91015625 C-8.81387451 -0.88739937 -4.65356865 -0.99851407 0 0 Z " fill="#A05F03" transform="translate(187,27)"/>
<path d="M0 0 C10.91121929 2.94061229 19.48964939 8.65472648 26 18 C28.27829477 22.54475425 30.36396821 27.24709906 31.51171875 32.21484375 C31.97207164 34.37184398 31.97207164 34.37184398 34 37 C37.194753 38.05435899 40.36596775 38.67011511 43.671875 39.2890625 C51.40903315 40.94183572 57.47273111 45.92449565 63.8125 50.4375 C64.78292236 51.1190918 64.78292236 51.1190918 65.77294922 51.81445312 C70.3281224 55.14675305 73.83410372 58.59150542 75.71484375 64.08984375 C76.32617375 69.16281022 75.57981476 72.44232725 73 77 C70.35602111 80.04057572 68.82883658 81.72372114 65 83 C63.6560147 83.0743092 62.30858591 83.09466034 60.96264648 83.07836914 C60.15427841 83.07249283 59.34591034 83.06661652 58.51304626 83.06056213 C57.20527977 83.04798622 57.20527977 83.04798622 55.87109375 83.03515625 C54.01236427 83.03887199 52.15363815 83.04480375 50.29492188 83.05273438 C47.37371317 83.06325024 44.45493718 83.06273019 41.53393555 83.02416992 C28.41424898 82.4957344 28.41424898 82.4957344 16.87890625 87.83984375 C14.77869905 89.88618424 14.77869905 89.88618424 13 92 C11.83890427 93.17221113 10.67284573 94.3395453 9.5 95.5 C8.675 96.325 7.85 97.15 7 98 C6.34 98 5.68 98 5 98 C4.79246094 96.96101563 4.58492188 95.92203125 4.37109375 94.8515625 C1.53035185 81.61278324 -3.71441637 72.0637025 -15 64 C-22.70458324 59.66828702 -32.96197868 54.87024734 -42 56 C-44.21896136 57.82471891 -44.21896136 57.82471891 -44.375 60.4375 C-44.25541382 63.05335543 -44.25541382 63.05335543 -42.4609375 64.515625 C-39.23480677 66.46154512 -35.85146994 67.32971402 -32.25 68.3125 C-21.76677294 71.41358703 -14.77660267 76.49419813 -9 86 C-5.86332667 92.98452557 -5.30921941 99.44580811 -4.828125 107.01757812 C-4.72757813 108.30245117 -4.72757813 108.30245117 -4.625 109.61328125 C-4.55152344 110.77017456 -4.55152344 110.77017456 -4.4765625 111.95043945 C-3.8456272 114.66391375 -3.37150882 115.48981328 -1 117 C1.75869413 117.29503949 4.30327671 117.41718195 7.0625 117.40625 C7.85019775 117.41708618 8.63789551 117.42792236 9.44946289 117.43908691 C11.96639234 117.47336901 14.48286766 117.4889473 17 117.5 C20.31293836 117.51454708 23.62485934 117.54817874 26.9375 117.59375 C27.70006104 117.59072876 28.46262207 117.58770752 29.24829102 117.58459473 C34.49405627 117.65921147 34.49405627 117.65921147 36.98046875 119.33398438 C38.58346668 121.95344268 38.38107303 124.01492795 38 127 C34.77791563 129.14805625 33.88143865 129.2577136 30.16479492 129.29052734 C29.18335007 129.30328705 28.20190521 129.31604675 27.1907196 129.32919312 C26.13133682 129.33141876 25.07195404 129.33364441 23.98046875 129.3359375 C22.88914139 129.3425943 21.79781403 129.3492511 20.67341614 129.35610962 C18.36261685 129.36624122 16.05178827 129.37092648 13.7409668 129.37060547 C10.21158323 129.37497022 6.68345842 129.41126283 3.15429688 129.44921875 C0.90885844 129.4550885 -1.33658593 129.45905683 -3.58203125 129.4609375 C-4.63534134 129.47530853 -5.68865143 129.48967957 -6.77388 129.50448608 C-8.26023201 129.4952562 -8.26023201 129.4952562 -9.77661133 129.48583984 C-11.07541985 129.4901149 -11.07541985 129.4901149 -12.40046692 129.49447632 C-18.30849143 128.3706675 -22.43786179 123.82140495 -26.57470703 119.73168945 C-27.09585083 119.21886917 -27.61699463 118.70604889 -28.15393066 118.1776886 C-29.86062968 116.49491865 -31.55972843 114.80474144 -33.2578125 113.11328125 C-34.45027753 111.92979461 -35.64281412 110.74638007 -36.8354187 109.56303406 C-39.32872785 107.08617039 -41.8176491 104.60498583 -44.30419922 102.12133789 C-47.47755992 98.95336024 -50.66675915 95.80185827 -53.86017036 92.65411091 C-56.32749213 90.21665477 -58.78336308 87.76789964 -61.23629379 85.31596947 C-62.40667948 84.14976613 -63.58115143 82.98764777 -64.75989151 81.8298893 C-71.97188065 74.73615999 -78.02372752 68.5645908 -79.56640625 58.19140625 C-79.55610464 48.62121492 -78.4470356 41.93739314 -71.9453125 34.71875 C-63.55648498 26.70727458 -56.57910952 25.67370777 -45.29296875 25.50390625 C-32.26682879 26.46193429 -19.17156546 34.96503181 -7.58642578 40.52929688 C-5.00586284 41.76598533 -2.41779652 42.98565058 0.171875 44.203125 C0.9543158 44.58430481 1.73675659 44.96548462 2.54290771 45.35821533 C7.30513782 47.57995402 10.74298566 48.42313829 16 48 C16.87245133 44.75145453 16.87245133 44.75145453 17 41 C15.3625686 38.1504614 15.3625686 38.1504614 12.875 35.6875 C4.68500151 26.34021911 -0.13627982 15.33888438 -0.1875 2.6875 C-0.125625 1.800625 -0.06375 0.91375 0 0 Z " fill="#D9BF9A" transform="translate(142,41)"/>
<path d="M0 0 C0.99 0.66 1.98 1.32 3 2 C2.80664062 2.53625 2.61328125 3.0725 2.4140625 3.625 C-0.24196749 11.6193873 -1.12092113 19.66426392 -2 28 C-8.12343514 28.1702706 -11.10932089 28.20825877 -16 24 C-19.38570467 20.16286804 -19.51291172 16.36598538 -19.3515625 11.4375 C-18.67904883 6.77473854 -16.30117669 4.14809708 -12.875 1.125 C-8.65922448 -0.52465129 -4.47534388 -0.5840703 0 0 Z " fill="#D9BF9A" transform="translate(53,73)"/>
<path d="M0 0 C1.703125 1.62890625 1.703125 1.62890625 3.25 3.5625 C3.77078125 4.20316406 4.2915625 4.84382812 4.828125 5.50390625 C5.21484375 5.99761719 5.6015625 6.49132812 6 7 C2.4741621 9.52292892 -1.0730113 12.01405583 -4.625 14.5 C-5.62402344 15.21542969 -6.62304688 15.93085938 -7.65234375 16.66796875 C-8.62558594 17.34472656 -9.59882812 18.02148438 -10.6015625 18.71875 C-11.93695068 19.66137695 -11.93695068 19.66137695 -13.29931641 20.62304688 C-16.47807472 22.2437481 -18.47703726 22.4319625 -22 22 C-24 19.8125 -24 19.8125 -25 17 C-23.2984066 10.31209175 -17.41151562 7.62958605 -12 4 C-10.83017578 3.17822266 -10.83017578 3.17822266 -9.63671875 2.33984375 C-4.00472155 -1.46785304 -4.00472155 -1.46785304 0 0 Z " fill="#D9BF9A" transform="translate(93,154)"/>
<path d="M0 0 C4.03424306 0.38325309 5.88939874 1.37743201 8.5 4.4375 C15.29256619 12.78054325 18.94576082 22.25542537 20 33 C19.34 33.66 18.68 34.32 18 35 C13.68447733 32.51971013 13.0119193 29.72927201 11.6875 25.0625 C8.9803024 16.13005049 4.71504057 8.39491614 -1 1 C-0.67 0.67 -0.34 0.34 0 0 Z " fill="#D9BF9A" transform="translate(179,38)"/>
<path d="M0 0 C1.875 2.5 1.875 2.5 3 5 C0.125 9.875 0.125 9.875 -1 11 C-3.7592273 11.29044498 -5.43697676 11.3190465 -7.875 9.9375 C-9.67936761 6.82997801 -8.81177938 4.37200667 -8 1 C-5.13879744 -0.43060128 -3.15989415 -0.38692581 0 0 Z " fill="#A05F03" transform="translate(198,96)"/>
</svg>
