<?xml version="1.0" encoding="UTF-8"?>
<!DOCTYPE svg PUBLIC "-//W3C//DTD SVG 1.1//EN" "http://www.w3.org/Graphics/SVG/1.1/DTD/svg11.dtd">
<svg xmlns="http://www.w3.org/2000/svg" version="1.1" width="184px" height="184px" style="shape-rendering:geometricPrecision; text-rendering:geometricPrecision; image-rendering:optimizeQuality; fill-rule:evenodd; clip-rule:evenodd" xmlns:xlink="http://www.w3.org/1999/xlink">
<g><path style="opacity:1" fill="#355313" d="M 5.5,-0.5 C 7.16667,-0.5 8.83333,-0.5 10.5,-0.5C 21.7716,10.2707 32.9383,21.2707 44,32.5C 46.2773,38.0002 44.7773,42.1668 39.5,45C 36.7433,45.5837 34.0766,45.2504 31.5,44C 20.604,33.2716 9.93731,22.4383 -0.5,11.5C -0.5,9.16667 -0.5,6.83333 -0.5,4.5C 1.20799,2.45654 3.20799,0.789873 5.5,-0.5 Z"/></g>
<g><path style="opacity:1" fill="#355313" d="M 87.5,-0.5 C 89.8333,-0.5 92.1667,-0.5 94.5,-0.5C 106.291,3.41298 110.458,11.413 107,23.5C 103.743,30.1297 98.4098,33.463 91,33.5C 81.0006,32.5025 75.1673,27.0025 73.5,17C 74.3268,8.01445 78.9935,2.18111 87.5,-0.5 Z"/></g>
<g><path style="opacity:1" fill="#355313" d="M 172.5,-0.5 C 174.167,-0.5 175.833,-0.5 177.5,-0.5C 180.247,1.24275 182.247,3.57608 183.5,6.5C 183.5,7.5 183.5,8.5 183.5,9.5C 173.121,21.3835 162.121,32.8835 150.5,44C 139.435,46.6001 135.602,42.4335 139,31.5C 149.783,20.2118 160.95,9.54515 172.5,-0.5 Z"/></g>
<g><path style="opacity:1" fill="#355313" d="M 108.5,183.5 C 106.5,183.5 104.5,183.5 102.5,183.5C 99.4582,181.776 97.6249,179.109 97,175.5C 96.5001,158.837 96.3334,142.17 96.5,125.5C 92.8333,125.5 89.1667,125.5 85.5,125.5C 85.6666,142.837 85.4999,160.17 85,177.5C 83.9791,180.35 82.1458,182.35 79.5,183.5C 77.8333,183.5 76.1667,183.5 74.5,183.5C 71.9399,182.78 70.1065,181.113 69,178.5C 68.6667,146.167 68.3333,113.833 68,81.5C 62.2921,91.0836 56.4588,100.584 50.5,110C 43.1658,113 38.4992,110.666 36.5,103C 44.1513,86.533 52.9846,70.6997 63,55.5C 70.7652,47.9581 80.0986,44.6248 91,45.5C 103.09,44.4161 113.09,48.4161 121,57.5C 128,69.5 135,81.5 142,93.5C 145.572,98.1683 146.239,103.168 144,108.5C 140.13,112.059 135.963,112.392 131.5,109.5C 126,100.5 120.5,91.5 115,82.5C 114.667,113.833 114.333,145.167 114,176.5C 113.062,179.598 111.228,181.931 108.5,183.5 Z"/></g>
<g><path style="opacity:1" fill="#aebaa0" d="M 85.5,62.5 C 89.1667,62.5 92.8333,62.5 96.5,62.5C 96.5,77.8333 96.5,93.1667 96.5,108.5C 92.8333,108.5 89.1667,108.5 85.5,108.5C 85.5,93.1667 85.5,77.8333 85.5,62.5 Z"/></g>
<g><path style="opacity:1" fill="#355313" d="M 10.5,183.5 C 8.83333,183.5 7.16667,183.5 5.5,183.5C 3.20799,182.21 1.20799,180.543 -0.5,178.5C -0.5,176.167 -0.5,173.833 -0.5,171.5C 9.93731,160.562 20.604,149.728 31.5,139C 38.8185,135.993 43.4852,138.326 45.5,146C 44.9057,148.79 43.7391,151.29 42,153.5C 31.96,164.041 21.46,174.041 10.5,183.5 Z"/></g>
<g><path style="opacity:1" fill="#355313" d="M 183.5,173.5 C 183.5,174.5 183.5,175.5 183.5,176.5C 182.2,179.432 180.2,181.766 177.5,183.5C 175.5,183.5 173.5,183.5 171.5,183.5C 160.562,173.063 149.728,162.396 139,151.5C 135.582,143.925 137.915,139.259 146,137.5C 147.627,137.625 149.127,138.125 150.5,139C 162.121,150.116 173.121,161.616 183.5,173.5 Z"/></g>
</svg>
